<?xml version="1.0" standalone="no"?>
<!DOCTYPE svg PUBLIC "-//W3C//DTD SVG 20010904//EN"
 "http://www.w3.org/TR/2001/REC-SVG-20010904/DTD/svg10.dtd">
<svg version="1.0" xmlns="http://www.w3.org/2000/svg"
 width="310.000000pt" height="310.000000pt" viewBox="0 0 310.000000 310.000000"
 preserveAspectRatio="xMidYMid meet">
<metadata>
Created by potrace 1.14, written by Peter Selinger 2001-2017
</metadata>
<g transform="translate(0.000000,310.000000) scale(0.100000,-0.100000)"
fill="#000000" stroke="none">
<path d="M1460 3020 c-8 -4 -30 -10 -48 -13 -18 -3 -40 -11 -48 -17 -7 -7 -14
-10 -14 -6 0 8 -102 -48 -132 -72 -18 -15 -116 -112 -163 -163 -8 -9 -15 -21
-15 -27 0 -7 -4 -12 -8 -12 -8 0 -34 -45 -36 -61 -1 -3 -10 -17 -20 -31 -10
-14 -18 -29 -17 -33 2 -4 -1 -11 -6 -14 -10 -8 -64 -116 -68 -139 -2 -9 -4
-19 -5 -22 -1 -3 -2 -8 -1 -12 0 -5 -4 -8 -9 -8 -6 0 -10 -8 -10 -18 0 -10 -7
-28 -16 -40 -8 -12 -13 -22 -10 -22 3 0 -3 -20 -14 -44 -10 -24 -16 -46 -14
-49 3 -3 -4 -20 -14 -39 -16 -29 -34 -94 -34 -125 0 -5 -4 -13 -10 -20 -5 -7
-7 -17 -3 -23 3 -5 3 -16 -2 -22 -7 -12 -9 -22 -17 -93 -2 -16 -4 -30 -5 -30
-1 0 -4 -24 -7 -54 -3 -30 -9 -60 -15 -67 -6 -8 -6 -14 0 -18 6 -4 6 -19 -1
-42 -5 -20 -7 -42 -4 -50 3 -7 2 -15 -2 -18 -5 -3 -7 -85 -6 -183 3 -214 7
-276 16 -284 4 -3 9 -23 10 -45 2 -21 6 -41 9 -44 4 -3 10 -23 13 -45 4 -21
10 -42 15 -45 4 -3 7 -15 6 -28 -1 -12 2 -22 7 -22 4 0 8 -6 8 -14 0 -8 7 -16
15 -20 8 -3 12 -12 9 -21 -3 -8 -1 -15 5 -15 6 0 11 -9 11 -20 0 -11 4 -20 9
-20 5 0 17 -18 27 -40 10 -22 22 -40 27 -40 4 0 6 -4 3 -9 -3 -5 1 -12 10 -15
9 -3 14 -11 12 -18 -4 -12 -3 -14 129 -150 51 -52 95 -93 98 -90 3 3 5 0 5 -7
0 -6 23 -33 51 -59 105 -97 125 -117 132 -132 4 -8 11 -22 16 -30 13 -20 25
-53 22 -63 0 -4 3 -16 8 -26 6 -10 11 -37 12 -59 2 -23 6 -42 11 -42 4 0 5 -7
2 -15 -6 -14 17 -15 182 -13 159 3 189 5 190 18 1 8 3 20 4 25 1 6 2 22 2 38
1 15 5 27 10 27 6 0 7 7 4 16 -4 9 -1 23 5 30 9 11 8 14 -1 14 -10 0 -10 3 0
15 7 9 10 18 7 22 -4 3 4 20 16 37 12 17 22 35 22 41 0 17 55 96 70 102 8 3
15 10 15 15 0 5 15 26 33 45 17 20 48 53 67 74 19 21 53 59 75 84 22 25 54 60
70 77 17 17 29 35 27 40 -1 4 3 8 9 8 5 0 7 5 4 10 -3 6 -2 10 2 10 5 0 16 18
26 40 9 22 21 40 25 40 5 0 9 6 10 13 2 29 9 45 24 61 9 9 20 26 24 39 4 12
11 25 17 29 6 3 12 16 14 29 2 12 8 27 13 34 5 6 12 26 15 44 3 19 9 41 14 50
7 15 6 276 -2 389 -2 28 1 52 6 52 5 0 3 7 -4 16 -14 17 -20 50 -18 99 1 17 0
41 0 55 -3 43 -9 105 -12 108 -1 1 -2 10 -3 20 -4 35 -19 87 -28 99 -6 7 -8
20 -4 28 3 8 1 15 -4 15 -5 0 -7 14 -5 30 2 17 -1 30 -6 30 -5 0 -9 7 -9 15 0
8 -4 23 -9 33 -11 19 -25 73 -23 85 1 4 -3 7 -9 7 -5 0 -7 5 -4 10 4 6 2 17
-4 24 -6 7 -13 23 -15 37 -3 13 -5 26 -6 29 -2 3 -2 8 -1 13 0 4 -4 7 -9 7 -6
0 -10 6 -8 13 1 6 -12 41 -30 76 -18 34 -32 69 -32 76 0 7 -7 18 -15 25 -8 7
-15 21 -15 30 0 10 -4 20 -8 22 -4 2 -29 39 -55 83 -26 44 -58 92 -72 107 -14
15 -25 30 -25 33 0 6 -27 36 -78 87 -15 16 -32 28 -39 28 -7 0 -16 6 -20 13
-16 25 -58 45 -75 36 -11 -6 -19 -5 -23 1 -3 5 -15 10 -25 10 -10 0 -26 7 -35
16 -8 9 -22 13 -30 10 -8 -3 -15 -2 -15 3 0 13 -48 19 -59 8 -8 -8 -11 -7 -11
2 0 8 -7 11 -19 8 -10 -2 -25 -1 -32 4 -8 4 -21 4 -29 -1z"/>
</g>
</svg>
